# xmcd CD database file
# Copyright (C) 1997 Ti Kan
# 
# Track frame offsets:
#     150
#     11027
#     23805
#     37780
#     51082
#     63205
#     74037
#     86747
#     98522
#     110812
#     125975
#     135885
#     146502
#     159510
#     171482
#     187482
# 
# Disc length: 2680 seconds
# 
# Revision: 1
# Processed by: cddbd v1.4b41PL1 Copyright (c) Steve Scherf et al.
# Submitted via: DiscPlay 4.0.4
# 
DISCID=e70a7610
DTITLE=Howlin  Wolf - Killing floor
DYEAR=1900
DGENRE=
TTITLE0=Little red rooster
TTITLE1=Killing floor
TTITLE2=Smokestack lightning
TTITLE3=Moanin at midnight
TTITLE4=Dorothy May
TTITLE5=Wang dang doodle
TTITLE6=Back door man
TTITLE7=Built for comfort
TTITLE8=How many more years
TTITLE9=Goin  down slow
TTITLE10=Natchez burning
TTITLE11=Who s been talkin 
TTITLE12=I asked for water, she gave me gasoline
TTITLE13=Louise
TTITLE14=Bluebird
TTITLE15=300lbs of joy
EXTD=
EXTT0=
EXTT1=
EXTT2=
EXTT3=
EXTT4=
EXTT5=
EXTT6=
EXTT7=
EXTT8=
EXTT9=
EXTT10=
EXTT11=
EXTT12=
EXTT13=
EXTT14=
EXTT15=
PLAYORDER=
